<svg width="30" height="30" viewBox="0 0 30 30" fill="none" xmlns="http://www.w3.org/2000/svg">
<path d="M10.115 16.3494H4.6875V24.4369H12.775V22.1762M12.7769 11.3937V4.6875H4.68937V12.775H11.3644M22.1656 12.7762H24.4375V4.68875H16.35V10.1175M7.055 18.7169H10.4369V22.0988H7.055V18.7169ZM7.05625 7.05625H10.4387V10.4387H7.05625V7.05625ZM18.7175 7.05562H22.0994V10.4381H18.7175V7.05562Z" stroke="#9747FF" stroke-linecap="round" stroke-linejoin="round"/>
<path d="M16.7837 23.4007C20.4385 23.4007 23.4012 20.4379 23.4012 16.7832C23.4012 13.1284 20.4385 10.1656 16.7837 10.1656C13.129 10.1656 10.1662 13.1284 10.1662 16.7832C10.1662 20.4379 13.129 23.4007 16.7837 23.4007Z" stroke="#9747FF" stroke-linecap="round" stroke-linejoin="round"/>
<path d="M21.5625 21.5625L27.8125 27.8119" stroke="#9747FF" stroke-linecap="round" stroke-linejoin="round"/>
</svg>
