<svg width="21" height="16" viewBox="0 0 21 16" fill="none" xmlns="http://www.w3.org/2000/svg">
<g clip-path="url(#clip0_245_1534)">
<path d="M4.77274 15.8381V7.72441L2.25643 5.42237L0 4.1449V14.4063C0 15.1985 0.641894 15.8381 1.43186 15.8381H4.77274Z" fill="#4285F4"/>
<path d="M16.2273 15.838H19.5682C20.3605 15.838 21 15.1961 21 14.4062V4.1449L18.4442 5.60809L16.2273 7.72433V15.838Z" fill="#34A853"/>
<path d="M4.77274 7.72441L4.43034 4.55415L4.77274 1.5199L10.5 5.81538L16.2273 1.5199L16.6103 4.39033L16.2273 7.72441L10.5 12.0199L4.77274 7.72441Z" fill="#EA4335"/>
<path d="M16.2273 1.51983V7.72435L21 4.14483V2.23572C21 0.465076 18.9788 -0.544318 17.5637 0.517576L16.2273 1.51983Z" fill="#FBBC04"/>
<path d="M0 4.14487L2.19507 5.79124L4.77274 7.72439V1.51987L3.43629 0.517614C2.01879 -0.544363 0 0.465114 0 2.23568V4.14479V4.14487Z" fill="#C5221F"/>
</g>
<defs>
<clipPath id="clip0_245_1534">
<rect width="21" height="15.832" fill="white" transform="translate(0 0.0839844)"/>
</clipPath>
</defs>
</svg>
