<svg width="21" height="22" viewBox="0 0 21 22" fill="none" xmlns="http://www.w3.org/2000/svg">
<g clip-path="url(#clip0_245_1529)">
<path d="M16.0781 0.5H4.92188C2.2036 0.5 0 2.7036 0 5.42188V16.5781C0 19.2964 2.2036 21.5 4.92188 21.5H16.0781C18.7964 21.5 21 19.2964 21 16.5781V5.42188C21 2.7036 18.7964 0.5 16.0781 0.5Z" fill="url(#paint0_radial_245_1529)"/>
<path d="M16.0781 0.5H4.92188C2.2036 0.5 0 2.7036 0 5.42188V16.5781C0 19.2964 2.2036 21.5 4.92188 21.5H16.0781C18.7964 21.5 21 19.2964 21 16.5781V5.42188C21 2.7036 18.7964 0.5 16.0781 0.5Z" fill="url(#paint1_radial_245_1529)"/>
<path d="M10.5007 2.79688C8.27293 2.79688 7.99329 2.80664 7.11834 2.84642C6.24504 2.88645 5.64892 3.02468 5.12736 3.22754C4.58776 3.43705 4.13011 3.71735 3.67418 4.17344C3.21784 4.62945 2.93754 5.08711 2.72738 5.62646C2.52394 6.14818 2.38555 6.74455 2.34626 7.61744C2.30713 8.49247 2.29688 8.7722 2.29688 11.0001C2.29688 13.228 2.30672 13.5067 2.34642 14.3817C2.38662 15.255 2.52484 15.8511 2.72754 16.3726C2.93721 16.9122 3.21751 17.3699 3.67361 17.8258C4.12945 18.2822 4.58711 18.5631 5.1263 18.7726C5.64826 18.9755 6.24446 19.1137 7.11761 19.1537C7.99263 19.1935 8.27203 19.2033 10.4998 19.2033C12.7278 19.2033 13.0065 19.1935 13.8815 19.1537C14.7548 19.1137 15.3516 18.9755 15.8735 18.7726C16.4129 18.5631 16.8699 18.2822 17.3257 17.8258C17.782 17.3699 18.0622 16.9122 18.2725 16.3729C18.4741 15.8511 18.6126 15.2548 18.6536 14.3818C18.6929 13.5069 18.7031 13.228 18.7031 11.0001C18.7031 8.7722 18.6929 8.49263 18.6536 7.6176C18.6126 6.7443 18.4741 6.14826 18.2725 5.62671C18.0622 5.08711 17.782 4.62945 17.3257 4.17344C16.8694 3.71718 16.4131 3.43688 15.873 3.22762C15.3501 3.02468 14.7536 2.88637 13.8803 2.84642C13.0053 2.80664 12.7267 2.79688 10.4982 2.79688H10.5007ZM9.76484 4.27516C9.98329 4.27483 10.227 4.27516 10.5007 4.27516C12.6911 4.27516 12.9506 4.28304 13.8155 4.32233C14.6153 4.35891 15.0495 4.49254 15.3386 4.60484C15.7215 4.75348 15.9944 4.93125 16.2813 5.21844C16.5684 5.50555 16.7461 5.77896 16.8952 6.1618C17.0075 6.45055 17.1413 6.88466 17.1777 7.68446C17.217 8.54923 17.2255 8.80894 17.2255 10.9982C17.2255 13.1874 17.217 13.4472 17.1777 14.3119C17.1411 15.1117 17.0075 15.5458 16.8952 15.8347C16.7465 16.2175 16.5684 16.4901 16.2813 16.777C15.9942 17.0642 15.7216 17.2418 15.3386 17.3906C15.0498 17.5034 14.6153 17.6367 13.8155 17.6732C12.9508 17.7125 12.6911 17.7211 10.5007 17.7211C8.31034 17.7211 8.05071 17.7125 7.18602 17.6732C6.38621 17.6363 5.95211 17.5027 5.6627 17.3904C5.27994 17.2417 5.00645 17.064 4.71934 16.7769C4.43223 16.4898 4.25455 16.217 4.1055 15.834C3.9932 15.5452 3.85941 15.1111 3.82298 14.3113C3.78369 13.4465 3.77582 13.1868 3.77582 10.9961C3.77582 8.80558 3.78369 8.54718 3.82298 7.68241C3.85957 6.88261 3.9932 6.4485 4.1055 6.15934C4.25422 5.7765 4.43223 5.50309 4.71942 5.21598C5.00653 4.92887 5.27994 4.75111 5.66278 4.60214C5.95194 4.48934 6.38621 4.35604 7.18602 4.31929C7.94276 4.28509 8.23602 4.27483 9.76484 4.27311V4.27516ZM14.8796 5.63721C14.3361 5.63721 13.8952 6.07771 13.8952 6.62125C13.8952 7.16471 14.3361 7.60563 14.8796 7.60563C15.423 7.60563 15.8639 7.16471 15.8639 6.62125C15.8639 6.0778 15.423 5.63688 14.8796 5.63688V5.63721ZM10.5007 6.78737C8.17433 6.78737 6.28811 8.67359 6.28811 11.0001C6.28811 13.3266 8.17433 15.2119 10.5007 15.2119C12.8272 15.2119 14.7128 13.3266 14.7128 11.0001C14.7128 8.67368 12.8271 6.78737 10.5006 6.78737H10.5007ZM10.5007 8.26565C12.0109 8.26565 13.2352 9.4898 13.2352 11.0001C13.2352 12.5102 12.0109 13.7345 10.5007 13.7345C8.99054 13.7345 7.76639 12.5102 7.76639 11.0001C7.76639 9.4898 8.99054 8.26565 10.5007 8.26565Z" fill="white"/>
</g>
<defs>
<radialGradient id="paint0_radial_245_1529" cx="0" cy="0" r="1" gradientUnits="userSpaceOnUse" gradientTransform="translate(5.57812 23.1174) rotate(-90) scale(20.8126 19.3573)">
<stop stop-color="#FFDD55"/>
<stop offset="0.1" stop-color="#FFDD55"/>
<stop offset="0.5" stop-color="#FF543E"/>
<stop offset="1" stop-color="#C837AB"/>
</radialGradient>
<radialGradient id="paint1_radial_245_1529" cx="0" cy="0" r="1" gradientUnits="userSpaceOnUse" gradientTransform="translate(-3.51758 2.01274) rotate(78.681) scale(9.30333 38.3486)">
<stop stop-color="#3771C8"/>
<stop offset="0.128" stop-color="#3771C8"/>
<stop offset="1" stop-color="#6600FF" stop-opacity="0"/>
</radialGradient>
<clipPath id="clip0_245_1529">
<rect width="21" height="21" fill="white" transform="translate(0 0.5)"/>
</clipPath>
</defs>
</svg>
