<svg width="21" height="22" viewBox="0 0 21 22" fill="none" xmlns="http://www.w3.org/2000/svg">
<path d="M17.5 14.0625C16.4062 14.0625 15.3563 13.8875 14.3763 13.5638C14.2224 13.5147 14.0581 13.5084 13.901 13.5454C13.7438 13.5824 13.5996 13.6613 13.4837 13.7738L11.5588 15.6988C9.07479 14.4354 7.05581 12.4165 5.7925 9.9325L7.7175 7.99875C7.83339 7.8888 7.91553 7.74808 7.95427 7.5931C7.99302 7.43812 7.98676 7.2753 7.93625 7.12375C7.60432 6.1158 7.43594 5.0612 7.4375 4C7.4375 3.51875 7.04375 3.125 6.5625 3.125H3.5C3.01875 3.125 2.625 3.51875 2.625 4C2.625 12.2163 9.28375 18.875 17.5 18.875C17.9813 18.875 18.375 18.4813 18.375 18V14.9375C18.375 14.4562 17.9813 14.0625 17.5 14.0625ZM16.625 11H18.375C18.375 8.91142 17.5453 6.90838 16.0685 5.43153C14.5916 3.95469 12.5886 3.125 10.5 3.125V4.875C13.8862 4.875 16.625 7.61375 16.625 11ZM13.125 11H14.875C14.875 8.585 12.915 6.625 10.5 6.625V8.375C11.9525 8.375 13.125 9.5475 13.125 11Z" fill="url(#paint0_linear_245_1549)"/>
<defs>
<linearGradient id="paint0_linear_245_1549" x1="10.5" y1="3.125" x2="10.5" y2="18.875" gradientUnits="userSpaceOnUse">
<stop stop-color="#1F94B9"/>
<stop offset="1" stop-color="#FFDD55"/>
</linearGradient>
</defs>
</svg>
