<svg width="315" height="730" preserveAspectRatio="none" viewBox="0 0 315 730" fill="none" xmlns="http://www.w3.org/2000/svg">
<path fill-rule="evenodd" clip-rule="evenodd" d="M12.6549 1.41498C66.1855 8.59424 90.4435 77.5766 131.533 115.148C170.562 150.835 219.386 171.911 248.856 217.393C282.694 269.616 323.402 329.88 312.137 393.883C300.83 458.133 243.41 502.384 192.568 537.218C150.278 566.193 92.2727 543.886 50.2396 573.32C-5.05279 612.039 -16.7636 729.353 -81.5568 729.178C-142.693 729.013 -150.493 624.069 -188.766 572.673C-217.349 534.29 -262.428 511.274 -278.499 464.708C-294.454 418.478 -295.542 363.555 -276.783 317.645C-259.106 274.384 -204.779 264.841 -180.702 225.364C-153.956 181.513 -164.832 118.166 -131.741 79.8391C-94.0362 36.1689 -40.8498 -5.7608 12.6549 1.41498Z" fill="url(#paint0_linear_250_1672)" fill-opacity="0.25"/>
<defs>
<linearGradient id="paint0_linear_250_1672" x1="63.2128" y1="-16.9671" x2="107.821" y2="801.697" gradientUnits="userSpaceOnUse">
<stop stop-color="#F45EAC"/>
<stop offset="0.25" stop-color="#9A4DCC"/>
<stop offset="0.5" stop-color="#FDCD12"/>
<stop offset="0.75" stop-color="#1A6DAF"/>
<stop offset="1" stop-color="#25ABBE"/>
</linearGradient>
</defs>
</svg>
