<svg width="320" height="625" viewBox="0 0 320 625" fill="none" xmlns="http://www.w3.org/2000/svg">
<path fill-rule="evenodd" clip-rule="evenodd" d="M228.418 1.20128C273.947 -7.27766 316.55 30.8186 355.78 62.3122C394.301 93.2375 448.269 122.659 453.112 181.588C458.536 247.58 378.168 285.518 379.578 351.868C381.058 421.502 468.592 458.883 460.468 527.722C453.505 586.719 392.162 610.883 347.599 622.826C307.134 633.671 269.631 593.432 228.418 589.912C190.852 586.703 152.228 623.394 117.867 603.205C83.4203 582.965 75.3974 524.279 51.4861 485.953C22.1753 438.971 -36.7655 412.525 -38.9371 351.868C-41.0798 292.016 12.0357 255.939 41.6177 210.305C66.1804 172.414 91.5024 138.441 120.342 106.158C155.031 67.3277 183.28 9.60743 228.418 1.20128Z" fill="url(#paint0_linear_250_1671)" fill-opacity="0.25"/>
<defs>
<linearGradient id="paint0_linear_250_1671" x1="211.216" y1="-21.0309" x2="340.749" y2="663.87" gradientUnits="userSpaceOnUse">
<stop stop-color="#F45EAC"/>
<stop offset="0.25" stop-color="#9A4DCC"/>
<stop offset="0.5" stop-color="#FDCD12"/>
<stop offset="0.75" stop-color="#1A6DAF"/>
<stop offset="1" stop-color="#25ABBE"/>
</linearGradient>
</defs>
</svg>
