<svg width="614" height="1125" viewBox="0 0 614 1125" fill="none" xmlns="http://www.w3.org/2000/svg">
<path fill-rule="evenodd" clip-rule="evenodd" d="M481.353 2.16231C563.305 -13.0998 639.991 55.4736 710.603 112.162C779.942 167.827 877.084 220.786 885.802 326.858C895.565 445.644 750.902 513.933 753.44 633.362C756.103 758.703 913.666 825.989 899.042 949.9C886.509 1056.09 776.092 1099.59 695.879 1121.09C623.041 1140.61 555.537 1068.18 481.353 1061.84C413.733 1056.07 344.21 1122.11 282.361 1085.77C220.357 1049.34 205.915 943.703 162.875 874.715C110.116 790.148 4.02205 742.546 0.113226 633.362C-3.74371 525.628 91.8642 460.69 145.112 378.549C189.325 310.344 234.904 249.194 286.816 191.085C349.256 121.19 400.104 17.2934 481.353 2.16231Z" fill="url(#paint0_linear_245_1359)" fill-opacity="0.25"/>
<defs>
<linearGradient id="paint0_linear_245_1359" x1="450.39" y1="-37.8557" x2="683.548" y2="1194.97" gradientUnits="userSpaceOnUse">
<stop stop-color="#F45EAC"/>
<stop offset="0.25" stop-color="#9A4DCC"/>
<stop offset="0.5" stop-color="#FDCD12"/>
<stop offset="0.75" stop-color="#1A6DAF"/>
<stop offset="1" stop-color="#25ABBE"/>
</linearGradient>
</defs>
</svg>
