<svg width="814" height="1398" viewBox="0 0 814 1398" fill="none" xmlns="http://www.w3.org/2000/svg">
<path fill-rule="evenodd" clip-rule="evenodd" d="M235.917 2.15957C338.568 15.9267 385.086 148.208 463.88 220.256C538.722 288.691 632.349 329.105 688.86 416.322C753.748 516.466 831.81 632.03 810.21 754.763C788.526 877.971 678.417 962.828 580.922 1029.63C499.826 1085.19 388.593 1042.41 307.99 1098.86C201.96 1173.1 179.503 1398.07 55.2545 1397.73C-61.9813 1397.41 -76.9396 1196.17 -150.332 1097.62C-205.143 1024.01 -291.587 979.874 -322.405 890.578C-353.001 801.928 -355.087 696.606 -319.114 608.567C-285.217 525.61 -181.039 507.31 -134.868 431.609C-83.5793 347.519 -104.435 226.043 -40.9793 152.547C31.3237 68.8043 133.315 -11.6008 235.917 2.15957Z" fill="url(#paint0_linear_241_950)" fill-opacity="0.25"/>
<defs>
<linearGradient id="paint0_linear_241_950" x1="332.867" y1="-33.0902" x2="418.409" y2="1536.8" gradientUnits="userSpaceOnUse">
<stop stop-color="#F45EAC"/>
<stop offset="0.25" stop-color="#9A4DCC"/>
<stop offset="0.5" stop-color="#FDCD12"/>
<stop offset="0.75" stop-color="#1A6DAF"/>
<stop offset="1" stop-color="#25ABBE"/>
</linearGradient>
</defs>
</svg>
