<svg width="582" height="1094" viewBox="0 0 582 1094" fill="none" xmlns="http://www.w3.org/2000/svg">
<path fill-rule="evenodd" clip-rule="evenodd" d="M128.982 1.62247C209.278 12.3914 245.665 115.865 307.3 172.222C365.843 225.753 439.079 257.366 483.284 325.589C534.04 403.923 595.102 494.32 578.206 590.324C561.244 686.7 475.115 753.077 398.852 805.327C335.417 848.789 248.409 815.329 185.359 859.48C102.421 917.559 84.8546 1093.53 -12.3353 1093.27C-104.04 1093.02 -115.74 935.604 -173.149 858.51C-216.023 800.936 -283.642 766.411 -307.748 696.562C-331.681 627.217 -333.313 544.832 -305.174 475.967C-278.659 411.076 -197.169 396.762 -161.053 337.547C-120.934 271.769 -137.248 176.748 -87.6113 119.259C-31.0544 53.7533 48.7252 -9.1412 128.982 1.62247Z" fill="url(#paint0_linear_245_1360)" fill-opacity="0.25"/>
<defs>
<linearGradient id="paint0_linear_245_1360" x1="204.819" y1="-25.9507" x2="271.731" y2="1202.05" gradientUnits="userSpaceOnUse">
<stop stop-color="#F45EAC"/>
<stop offset="0.25" stop-color="#9A4DCC"/>
<stop offset="0.5" stop-color="#FDCD12"/>
<stop offset="0.75" stop-color="#1A6DAF"/>
<stop offset="1" stop-color="#25ABBE"/>
</linearGradient>
</defs>
</svg>
