<svg width="799" height="1443" viewBox="0 0 799 1443" fill="none" xmlns="http://www.w3.org/2000/svg">
<path fill-rule="evenodd" clip-rule="evenodd" d="M617.736 2.77497C722.908 -16.8114 821.322 71.1911 911.941 143.941C1000.93 215.379 1125.59 283.342 1136.78 419.467C1149.31 571.91 963.658 659.547 966.915 812.815C970.333 973.669 1172.54 1060.02 1153.77 1219.04C1137.69 1355.32 995.985 1411.14 893.045 1438.73C799.569 1463.78 712.939 1370.83 617.736 1362.7C530.957 1355.28 441.736 1440.04 362.363 1393.4C282.791 1346.65 264.258 1211.09 209.023 1122.55C141.315 1014.02 5.16163 952.934 0.145307 812.815C-4.80443 674.556 117.892 591.219 186.227 485.804C242.967 398.275 301.461 319.8 368.081 245.225C448.212 155.527 513.467 22.1932 617.736 2.77497Z" fill="url(#paint0_linear_241_981)" fill-opacity="0.25"/>
<defs>
<linearGradient id="paint0_linear_241_981" x1="578" y1="-48.5814" x2="877.221" y2="1533.54" gradientUnits="userSpaceOnUse">
<stop stop-color="#F45EAC"/>
<stop offset="0.25" stop-color="#9A4DCC"/>
<stop offset="0.5" stop-color="#FDCD12"/>
<stop offset="0.75" stop-color="#1A6DAF"/>
<stop offset="1" stop-color="#25ABBE"/>
</linearGradient>
</defs>
</svg>
